<svg width="120" height="132" viewBox="0 0 120 132" fill="none" xmlns="http://www.w3.org/2000/svg" role="img" aria-label="Soporte Digital">
  <defs>
    <linearGradient id="sdGrad" x1="14" y1="14" x2="106" y2="118" gradientUnits="userSpaceOnUse">
      <stop offset="0" stop-color="#0E7490"/>
      <stop offset="1" stop-color="#22D3EE"/>
    </linearGradient>
  </defs>
  <!-- Hexágono con esquinas redondeadas (flat top/bottom) -->
  <path d="M60 4
           C66 4 71.5 4 78 5
           L104 20
           C109 23 112 28 112 34
           L112 98
           C112 104 109 109 104 112
           L78 127
           C71.5 128 66 128 60 128
           C54 128 48.5 128 42 127
           L16 112
           C11 109 8 104 8 98
           L8 34
           C8 28 11 23 16 20
           L42 5
           C48.5 4 54 4 60 4 Z"
        fill="url(#sdGrad)"/>
  <!-- SD en navy sólido, forma fiel al original -->
  <g fill="#0F172A">
    <!-- S: curva superior + curva inferior (bloque sólido) -->
    <path d="M52 44
             C52 40 49 37 43 37
             L33 37
             C27 37 25 40 25 44
             L25 50
             C25 53 27 55 31 55
             L46 55
             C50 55 52 57 52 61
             L52 67
             C52 71 50 73 46 73
             L31 73
             C27 73 25 71 25 67
             L25 61
             L20 61
             L20 67
             C20 74 25 79 33 79
             L46 79
             C54 79 60 74 60 66
             L60 50
             C60 43 57 38 50 37
             L43 37
             C40 37 38 39 38 42
             L38 48
             L43 48
             L43 44
             Z"/>
    <!-- D -->
    <path d="M66 37
             L78 37
             C90 37 98 45 98 61
             C98 77 90 85 78 85
             L66 85
             L66 79
             L76 79
             C85 79 90 73 90 61
             C90 49 85 43 76 43
             L66 43
             Z"/>
  </g>
</svg>
